<?xml version="1.0" encoding="UTF-8"?>
<svg width="567px" height="163px" viewBox="0 0 567 163" version="1.1" xmlns="http://www.w3.org/2000/svg" xmlns:xlink="http://www.w3.org/1999/xlink">
    <!-- Generator: Sketch 55.2 (78181) - https://sketchapp.com -->
    <title>Group 5</title>
    <desc>Created with Sketch.</desc>
    <g id="Page-1" stroke="none" stroke-width="1" fill="none" fill-rule="evenodd">
        <g id="Artboard" transform="translate(-418.000000, -282.000000)" fill="#0D111B">
            <g id="Group-2" transform="translate(418.000000, 282.000000)">
                <g id="Group-5">
                    <g id="Group-3">
                        <g id="Group-6" transform="translate(24.000000, 25.000000)">
                            <path d="M37.6560154,109.327354 L78.0236419,109.327354 C79.494059,109.327354 80.6860676,110.519363 80.6860676,111.98978 C80.6860676,113.460197 79.494059,114.652206 78.0236419,114.652206 L37.6560154,114.652206 C36.1855983,114.652206 34.9935897,113.460197 34.9935897,111.98978 C34.9935897,111.98978 34.9935897,111.98978 34.9935897,111.98978 C34.9935897,111.98978 34.9935897,111.98978 34.9935897,111.98978 C34.9935897,110.519363 36.1855983,109.327354 37.6560154,109.327354 Z" id="Rectangle"></path>
                            <rect id="Rectangle" x="36.2948718" y="97.0306254" width="44.2435897" height="5.32485139" rx="2.6624257"></rect>
                            <rect id="Rectangle" x="36.2948718" y="84.9017972" width="44.2435897" height="5.32485139" rx="2.6624257"></rect>
                            <rect id="Rectangle" x="36.2948718" y="72.772969" width="44.2435897" height="5.32485139" rx="2.6624257"></rect>
                            <rect id="Rectangle" x="36.2948718" y="60.6441409" width="44.2435897" height="5.32485139" rx="2.6624257"></rect>
                            <rect id="Rectangle" x="36.2948718" y="48.5153127" width="44.2435897" height="5.32485139" rx="2.6624257"></rect>
                            <path d="M1.5215879,73.3485257 L73.6707198,73.3485257 C75.1080763,73.3485257 76.2732839,74.5137333 76.2732839,75.9510898 C76.2732839,77.3884463 75.1080763,78.5536539 73.6707198,78.5536539 L1.5215879,78.5536539 C0.0842314396,78.5536539 -1.0809762,77.3884463 -1.0809762,75.9510898 C-1.0809762,74.5137333 0.0842314396,73.3485257 1.5215879,73.3485257 Z" id="Rectangle" transform="translate(37.596154, 75.951090) rotate(-90.000000) translate(-37.596154, -75.951090) "></path>
                            <g id="Group" transform="translate(0.000000, -0.000000)">
                                <rect id="Rectangle" x="0" y="36.3864845" width="116" height="5.32485139" rx="2.6624257"></rect>
                                <rect id="Rectangle" x="0" y="24.2576563" width="116" height="5.32485139" rx="2.6624257"></rect>
                                <rect id="Rectangle" x="0" y="12.1288282" width="116" height="5.32485139" rx="2.6624257"></rect>
                                <rect id="Rectangle" x="0" y="5.68434189e-14" width="116" height="5.32485139" rx="2.6624257"></rect>
                                <path d="M95.5,18.0716157 L131.294872,18.0716157 C132.732228,18.0716157 133.897436,19.2368234 133.897436,20.6741798 C133.897436,22.1115363 132.732228,23.2767439 131.294872,23.2767439 L95.5,23.2767439 C94.0626435,23.2767439 92.8974359,22.1115363 92.8974359,20.6741798 C92.8974359,19.2368234 94.0626435,18.0716157 95.5,18.0716157 Z" id="Rectangle" transform="translate(113.397436, 20.674180) rotate(-90.000000) translate(-113.397436, -20.674180) "></path>
                            </g>
                        </g>
                        <path d="M11,0 L152,0 C158.075132,0 163,4.92486775 163,11 L163,152 C163,158.075132 158.075132,163 152,163 L11,163 C4.92486775,163 0,158.075132 0,152 L0,11 C0,4.92486775 4.92486775,0 11,0 Z M11,5.3 C7.85197693,5.3 5.3,7.85197693 5.3,11 L5.3,152 C5.3,155.148023 7.85197693,157.7 11,157.7 L152,157.7 C155.148023,157.7 157.7,155.148023 157.7,152 L157.7,11 C157.7,7.85197693 155.148023,5.3 152,5.3 L11,5.3 Z" id="Rectangle" fill-rule="nonzero"></path>
                    </g>
                    <path d="M238.308316,54.4573643 L238.308316,120 L250.691684,120 L250.691684,54.4403647 L278,54.4403647 L278,43 L211,43 L211,54.4403647 L238.308316,54.4403647 L238.308316,54.4573643 Z M287,120 L298.484871,120 L298.484871,87.2412075 C298.484871,82.9553522 300.030259,79.4368049 303.012669,76.57863 C306.104387,73.7213932 309.858549,72.2927747 314.386347,72.2927747 C318.693645,72.2927747 322.336614,73.7213932 325.207832,76.57863 C328.079049,79.3270554 329.515129,82.8446648 329.515129,87.1314581 L329.515129,120 L341,120 L341,83.8333475 C341,77.3487519 338.791226,72.0713999 334.373678,67.7836685 C329.957073,63.4978133 324.435138,61.4088223 317.699508,61.4088223 C309.196105,61.4088223 302.791226,64.7069329 298.484871,71.1924665 L298.484871,43 L287,43 L287,120 L287,120 Z M409,90.5 C409,81.7855781 406.164419,74.5240365 400.493257,68.7144219 C394.930977,62.9057606 387.951371,60 379.554441,60 C371.15658,60 364.068093,62.9048073 358.396931,68.7144219 C352.835581,74.5249898 350,81.7855781 350,90.5 C350,99.2144219 352.944463,106.475963 358.723576,112.285578 C364.504551,118.094239 371.810801,121 380.427357,121 C391.76875,121 401.365242,115.413465 406.600877,106.364423 L395.477247,102.900963 C391.877632,107.70481 386.860692,110.161551 380.427357,110.161551 C370.939747,110.161551 363.413871,103.793283 361.66897,94.7442409 L408.782236,94.7442409 C408.891118,92.8461538 409,91.3932735 409,90.5 Z M362,86 C364.040285,78.2276891 371.340693,71 379.5,71 C388.196176,71 394.960631,78.2268277 397,86 L362,86 L362,86 Z M437.30926,54.4403647 L437.30926,120 L449.691684,120 L449.691684,54.4403647 L477,54.4403647 L477,43 L410,43 L410,54.4403647 L437.30926,54.4403647 L437.30926,54.4403647 Z M497,120 L497,63 L486,63 L486,120 L497,120 L497,120 Z M486.19004,53.6606645 C489.343299,56.7797785 494.481796,56.7797785 497.635056,53.6606645 C500.788315,50.5415505 500.788315,45.4577101 497.635056,42.3385961 C494.481796,39.220468 489.343299,39.220468 486.19004,42.3385961 C483.269987,45.4577101 483.269987,50.5415505 486.19004,53.6606645 L486.19004,53.6606645 Z M567,90.5 C567,81.7855781 564.164419,74.5240365 558.493257,68.7144219 C552.930977,62.9057606 545.951371,60 537.554441,60 C529.15751,60 522.068093,62.9048073 516.397861,68.7144219 C510.835581,74.5249898 508,81.7855781 508,90.5 C508,99.2144219 510.944463,106.475963 516.723576,112.285578 C522.504551,118.094239 529.810801,121 538.426426,121 C549.76782,121 559.365242,115.413465 564.599946,106.364423 L553.476317,102.900963 C549.876702,107.70481 544.860692,110.161551 538.426426,110.161551 C528.938816,110.161551 521.41294,103.793283 519.66897,94.7442409 L566.782236,94.7442409 C566.891118,92.8461538 567,91.3932735 567,90.5 Z M537.5,71 C546.196176,71 552.960631,78.4590659 555,86 L520,86 C522.040285,78.4599015 529.340693,71 537.5,71 Z" id="Shape"></path>
                </g>
            </g>
        </g>
    </g>
</svg>